<svg xmlns="http://www.w3.org/2000/svg" xmlns:xlink="http://www.w3.org/1999/xlink" contentStyleType="text/css"
     height="273px" preserveAspectRatio="none" style="width:499px;height:273px;background:#FFFFFF;" version="1.1"
     viewBox="0 0 499 273" width="499px" zoomAndPan="magnify">
    <defs/>
    <g>
        <ellipse cx="254.0356" cy="20" fill="#222222" rx="10" ry="10" style="stroke:#222222;stroke-width:1.0;"/>
        <polygon fill="#F1F1F1" points="32,50,86.4253,50,98.4253,62,86.4253,74,32,74,20,62,32,50"
                 style="stroke:#181818;stroke-width:0.5;"/>
        <text fill="#000000" font-family="sans-serif" font-size="11" lengthAdjust="spacing" textLength="17.1177"
              x="63.2126" y="85.8701">yes
        </text>
        <text fill="#000000" font-family="sans-serif" font-size="11" lengthAdjust="spacing" textLength="54.4253" x="32"
              y="66.5547">condition A
        </text>
        <rect fill="#F1F1F1" height="35.9609" rx="12.5" ry="12.5" style="stroke:#181818;stroke-width:0.5;"
              width="53.3457" x="32.5398" y="107.3701"/>
        <text fill="#000000" font-family="sans-serif" font-size="12" lengthAdjust="spacing" textLength="33.3457"
              x="42.5398" y="130.3193">Text 1
        </text>
        <polygon fill="#F1F1F1"
                 points="130.4253,50,184.8506,50,196.8506,62,184.8506,74,130.4253,74,118.4253,62,130.4253,50"
                 style="stroke:#181818;stroke-width:0.5;"/>
        <text fill="#000000" font-family="sans-serif" font-size="11" lengthAdjust="spacing" textLength="17.1177"
              x="161.6379" y="85.8701">yes
        </text>
        <text fill="#000000" font-family="sans-serif" font-size="11" lengthAdjust="spacing" textLength="54.4253"
              x="130.4253" y="66.5547">condition B
        </text>
        <rect fill="#F1F1F1" height="35.9609" rx="12.5" ry="12.5" style="stroke:#181818;stroke-width:0.5;"
              width="53.3457" x="130.9651" y="107.3701"/>
        <text fill="#000000" font-family="sans-serif" font-size="12" lengthAdjust="spacing" textLength="33.3457"
              x="140.9651" y="130.3193">Text 2
        </text>
        <ellipse cx="157.6379" cy="189.3311" fill="none" rx="11" ry="11" style="stroke:#222222;stroke-width:1.0;"/>
        <ellipse cx="157.6379" cy="189.3311" fill="#222222" rx="6" ry="6" style="stroke:#222222;stroke-width:1.0;"/>
        <polygon fill="#F1F1F1"
                 points="231.0859,50,286.1182,50,298.1182,62,286.1182,74,231.0859,74,219.0859,62,231.0859,50"
                 style="stroke:#181818;stroke-width:0.5;"/>
        <text fill="#000000" font-family="sans-serif" font-size="11" lengthAdjust="spacing" textLength="17.1177"
              x="262.6021" y="85.8701">yes
        </text>
        <text fill="#000000" font-family="sans-serif" font-size="11" lengthAdjust="spacing" textLength="55.0322"
              x="231.0859" y="66.5547">condition C
        </text>
        <text fill="#000000" font-family="sans-serif" font-size="11" lengthAdjust="spacing" textLength="12.2354"
              x="206.8506" y="59.2393">no
        </text>
        <rect fill="#F1F1F1" height="35.9609" rx="12.5" ry="12.5" style="stroke:#181818;stroke-width:0.5;"
              width="53.3457" x="231.9292" y="107.3701"/>
        <text fill="#000000" font-family="sans-serif" font-size="12" lengthAdjust="spacing" textLength="33.3457"
              x="241.9292" y="130.3193">Text 3
        </text>
        <polygon fill="#F1F1F1"
                 points="332.3535,50,387.3857,50,399.3857,62,387.3857,74,332.3535,74,320.3535,62,332.3535,50"
                 style="stroke:#181818;stroke-width:0.5;"/>
        <text fill="#000000" font-family="sans-serif" font-size="11" lengthAdjust="spacing" textLength="17.1177"
              x="363.8696" y="85.8701">yes
        </text>
        <text fill="#000000" font-family="sans-serif" font-size="11" lengthAdjust="spacing" textLength="55.0322"
              x="332.3535" y="66.5547">condition D
        </text>
        <text fill="#000000" font-family="sans-serif" font-size="11" lengthAdjust="spacing" textLength="12.2354"
              x="308.1182" y="59.2393">no
        </text>
        <text fill="#000000" font-family="sans-serif" font-size="11" lengthAdjust="spacing" textLength="36.0884"
              x="399.3857" y="59.2393">nothing
        </text>
        <rect fill="#F1F1F1" height="35.9609" rx="12.5" ry="12.5" style="stroke:#181818;stroke-width:0.5;"
              width="53.3457" x="333.1968" y="107.3701"/>
        <text fill="#000000" font-family="sans-serif" font-size="12" lengthAdjust="spacing" textLength="33.3457"
              x="343.1968" y="130.3193">Text 4
        </text>
        <rect fill="#F1F1F1" height="35.9609" rx="12.5" ry="12.5" style="stroke:#181818;stroke-width:0.5;"
              width="68.6855" x="419.3857" y="131.5547"/>
        <text fill="#000000" font-family="sans-serif" font-size="12" lengthAdjust="spacing" textLength="48.6855"
              x="429.3857" y="154.5039">Text else
        </text>
        <ellipse cx="254.0356" cy="251.3311" fill="none" rx="11" ry="11" style="stroke:#222222;stroke-width:1.0;"/>
        <ellipse cx="254.0356" cy="251.3311" fill="#222222" rx="6" ry="6" style="stroke:#222222;stroke-width:1.0;"/>
        <line style="stroke:#181818;stroke-width:1.0;" x1="157.6379" x2="157.6379" y1="143.3311" y2="178.3311"/>
        <polygon fill="#181818" points="153.6379,168.3311,157.6379,178.3311,161.6379,168.3311,157.6379,172.3311"
                 style="stroke:#181818;stroke-width:1.0;"/>
        <line style="stroke:#181818;stroke-width:1.0;" x1="59.2126" x2="59.2126" y1="74" y2="107.3701"/>
        <polygon fill="#181818" points="55.2126,97.3701,59.2126,107.3701,63.2126,97.3701,59.2126,101.3701"
                 style="stroke:#181818;stroke-width:1.0;"/>
        <line style="stroke:#181818;stroke-width:1.0;" x1="59.2126" x2="59.2126" y1="143.3311" y2="220.3311"/>
        <polygon fill="#181818" points="55.2126,210.3311,59.2126,220.3311,63.2126,210.3311,59.2126,214.3311"
                 style="stroke:#181818;stroke-width:1.0;"/>
        <line style="stroke:#181818;stroke-width:1.0;" x1="157.6379" x2="157.6379" y1="74" y2="107.3701"/>
        <polygon fill="#181818" points="153.6379,97.3701,157.6379,107.3701,161.6379,97.3701,157.6379,101.3701"
                 style="stroke:#181818;stroke-width:1.0;"/>
        <line style="stroke:#181818;stroke-width:1.0;" x1="258.6021" x2="258.6021" y1="74" y2="107.3701"/>
        <polygon fill="#181818" points="254.6021,97.3701,258.6021,107.3701,262.6021,97.3701,258.6021,101.3701"
                 style="stroke:#181818;stroke-width:1.0;"/>
        <line style="stroke:#181818;stroke-width:1.0;" x1="258.6021" x2="258.6021" y1="143.3311" y2="220.3311"/>
        <polygon fill="#181818" points="254.6021,210.3311,258.6021,220.3311,262.6021,210.3311,258.6021,214.3311"
                 style="stroke:#181818;stroke-width:1.0;"/>
        <line style="stroke:#181818;stroke-width:1.0;" x1="359.8696" x2="359.8696" y1="74" y2="107.3701"/>
        <polygon fill="#181818" points="355.8696,97.3701,359.8696,107.3701,363.8696,97.3701,359.8696,101.3701"
                 style="stroke:#181818;stroke-width:1.0;"/>
        <line style="stroke:#181818;stroke-width:1.0;" x1="359.8696" x2="359.8696" y1="143.3311" y2="220.3311"/>
        <polygon fill="#181818" points="355.8696,210.3311,359.8696,220.3311,363.8696,210.3311,359.8696,214.3311"
                 style="stroke:#181818;stroke-width:1.0;"/>
        <line style="stroke:#181818;stroke-width:1.0;" x1="98.4253" x2="118.4253" y1="62" y2="62"/>
        <polygon fill="#181818" points="108.4253,58,118.4253,62,108.4253,66,112.4253,62"
                 style="stroke:#181818;stroke-width:1.0;"/>
        <line style="stroke:#181818;stroke-width:1.0;" x1="196.8506" x2="219.0859" y1="62" y2="62"/>
        <polygon fill="#181818" points="209.0859,58,219.0859,62,209.0859,66,213.0859,62"
                 style="stroke:#181818;stroke-width:1.0;"/>
        <line style="stroke:#181818;stroke-width:1.0;" x1="298.1182" x2="320.3535" y1="62" y2="62"/>
        <polygon fill="#181818" points="310.3535,58,320.3535,62,310.3535,66,314.3535,62"
                 style="stroke:#181818;stroke-width:1.0;"/>
        <line style="stroke:#181818;stroke-width:1.0;" x1="254.0356" x2="254.0356" y1="30" y2="35"/>
        <line style="stroke:#181818;stroke-width:1.0;" x1="254.0356" x2="59.2126" y1="35" y2="35"/>
        <line style="stroke:#181818;stroke-width:1.0;" x1="59.2126" x2="59.2126" y1="35" y2="50"/>
        <polygon fill="#181818" points="55.2126,40,59.2126,50,63.2126,40,59.2126,44"
                 style="stroke:#181818;stroke-width:1.0;"/>
        <line style="stroke:#181818;stroke-width:1.0;" x1="399.3857" x2="453.7285" y1="62" y2="62"/>
        <line style="stroke:#181818;stroke-width:1.0;" x1="453.7285" x2="453.7285" y1="62" y2="131.5547"/>
        <polygon fill="#181818" points="449.7285,121.5547,453.7285,131.5547,457.7285,121.5547,453.7285,125.5547"
                 style="stroke:#181818;stroke-width:1.0;"/>
        <line style="stroke:#181818;stroke-width:1.0;" x1="453.7285" x2="453.7285" y1="167.5156" y2="220.3311"/>
        <polygon fill="#181818" points="449.7285,210.3311,453.7285,220.3311,457.7285,210.3311,453.7285,214.3311"
                 style="stroke:#181818;stroke-width:1.0;"/>
        <line style="stroke:#181818;stroke-width:1.0;" x1="59.2126" x2="453.7285" y1="220.3311" y2="220.3311"/>
        <line style="stroke:#181818;stroke-width:1.0;" x1="254.0356" x2="254.0356" y1="220.3311" y2="240.3311"/>
        <polygon fill="#181818" points="250.0356,230.3311,254.0356,240.3311,258.0356,230.3311,254.0356,234.3311"
                 style="stroke:#181818;stroke-width:1.0;"/><!--SRC=[Aov9B2hXoanJq4ZEpql9BCdCprDmr5GeoKZDKz2eJ2tMv59Gi0f9hIXHCBJcIiqfJaLLweHLgP4ra5bSab_0fP6Nhwc0gSqPgpPZQrpgNR2gDu6uI06egIGZCoyT8GCI1ae2jQTnWTm10000]-->
    </g>
</svg>